HIERARCHY
ROOT Hips
{
  OFFSET 64.689 87.035 29.2219
  CHANNELS 6 Xposition Yposition Zposition Zrotation Xrotation Yrotation
  JOINT spine
  {
    OFFSET 0 6.84637 0.3937
    CHANNELS 3 Zrotation Xrotation Yrotation
    JOINT spine1
    {
      OFFSET 0 9.49621 0
      CHANNELS 3 Zrotation Xrotation Yrotation
      JOINT spine2
      {
        OFFSET 0 9.09909 0
        CHANNELS 3 Zrotation Xrotation Yrotation
        JOINT Neck
        {
          OFFSET 0 23.3612 1.11378
          CHANNELS 3 Zrotation Xrotation Yrotation
          JOINT Head
          {
            OFFSET 0 7.05802 0
            CHANNELS 3 Zrotation Xrotation Yrotation
            End Site
            {
              OFFSET 0 17.0844 -5.63419
            }
          }
        }
        JOINT RightShoulder
        {
          OFFSET -3.83136 9.82631 -0.533491
          CHANNELS 3 Zrotation Xrotation Yrotation
          JOINT RightArm
          {
            OFFSET 0 12.8881 0
            CHANNELS 3 Zrotation Xrotation Yrotation
            JOINT RightArmRoll
            {
              OFFSET 0 6.50617 0
              CHANNELS 3 Zrotation Xrotation Yrotation
              JOINT RightForeArm
              {
                OFFSET 0 18.9501 0
                CHANNELS 3 Zrotation Xrotation Yrotation
                JOINT RightForeArmRoll
                {
                  OFFSET 0 7.30092 0
                  CHANNELS 3 Zrotation Xrotation Yrotation
                  JOINT RightHand
                  {
                    OFFSET 0 14.6514 0
                    CHANNELS 3 Zrotation Xrotation Yrotation
                    End Site
                    {
                      OFFSET 0 0 0
                    }
                  }
                }
              }
            }
          }
        }
        JOINT LeftShoulder
        {
          OFFSET 3.83136 9.82631 -0.533491
          CHANNELS 3 Zrotation Xrotation Yrotation
          JOINT LeftArm
          {
            OFFSET 0 12.8881 0
            CHANNELS 3 Zrotation Xrotation Yrotation
            JOINT LeftArmRoll
            {
              OFFSET 0 6.50617 0
              CHANNELS 3 Zrotation Xrotation Yrotation
              JOINT LeftForeArm
              {
                OFFSET 0 18.9501 0
                CHANNELS 3 Zrotation Xrotation Yrotation
                JOINT LeftForeArmRoll
                {
                  OFFSET 0 7.30092 0
                  CHANNELS 3 Zrotation Xrotation Yrotation
                  JOINT LeftHand
                  {
                    OFFSET 0 14.6514 0
                    CHANNELS 3 Zrotation Xrotation Yrotation
                    End Site
                    {
                      OFFSET 0 0 0
                    }
                  }
                }
              }
            }
          }
        }
      }
    }
  }
  JOINT RightUpLeg
  {
    OFFSET -6.06837 -1.11278 -0.933477
    CHANNELS 3 Zrotation Xrotation Yrotation
    JOINT RightUpLegRoll
    {
      OFFSET 0 17.1796 0
      CHANNELS 3 Zrotation Xrotation Yrotation
      JOINT RightLeg
      {
        OFFSET 0 -21.2743 0
        CHANNELS 3 Zrotation Xrotation Yrotation
        JOINT RightLegRoll
        {
          OFFSET 0 21.3439 0
          CHANNELS 3 Zrotation Xrotation Yrotation
          JOINT RightFoot
          {
            OFFSET 0 17.7652 0
            CHANNELS 3 Zrotation Xrotation Yrotation
            JOINT RightToeBase
            {
              OFFSET 0 14.8508 0
              CHANNELS 3 Zrotation Xrotation Yrotation
              End Site
              {
                OFFSET 0.0062947 7.19213 -0.829005
              }
            }
          }
        }
      }
    }
  }
  JOINT LeftUpLeg
  {
    OFFSET 6.06837 -1.11278 -0.933477
    CHANNELS 3 Zrotation Xrotation Yrotation
    JOINT LeftUpLegRoll
    {
      OFFSET 0 17.1797 0
      CHANNELS 3 Zrotation Xrotation Yrotation
      JOINT LeftLeg
      {
        OFFSET 0 21.2742 0
        CHANNELS 3 Zrotation Xrotation Yrotation
        JOINT LeftLegRoll
        {
          OFFSET 0 21.5412 0
          CHANNELS 3 Zrotation Xrotation Yrotation
          JOINT LeftFoot
          {
            OFFSET 0 17.5679 0
            CHANNELS 3 Zrotation Xrotation Yrotation
            JOINT LeftToeBase
            {
              OFFSET 0 14.8508 0
              CHANNELS 3 Zrotation Xrotation Yrotation
              End Site
              {
                OFFSET -0.0282102 7.19214 -0.829004
              }
            }
          }
        }
      }
    }
  }
}
MOTION
Frames: 6
Frame Time: 0.00208333
51.972 86.6151 9.16241 1.17737 -1.0696 -0.225289 1.24471 -1.83117 1.09744 2.48918 0.356658 2.0663 2.46564 2.0004 2.02546 -17.0174 5.11212 -3.11681 12.4869 8.03677 -6.95429 53.0481 -8.38343 -5.05411 99.6027 17.532 24.6655 7.84514e-007 -2.28338e-006 -5.19072e-006 12.333 4.89931 -1.0464 -9.78498e-006 -2.78363e-008 -3.0045 8.02888 -4.95147 0.697689 -72.3444 -7.29109 4.96324 -96.1044 23.9689 -27.6607 4.44593e-007 -2.44813e-006 3.65363e-006 -12.977 8.19936 0.580789 1.15501e-005 8.15674e-006 3.00581 -8.02887 -4.95142 -0.697678 177.872 15.5575 -1.23714 180 7.01536e-015 178.875 176.404 24.7244 -179.8 -4.84381e-006 2.17778e-006 0.609078 -23.1789 71.3435 22.9197 8.12814 25.2331 -3.48417 -178.967 12.4269 1.14149 4.54188e-006 -4.6773e-006 -1.0081 -1.42687 -24.037 0.553917 3.88615e-006 7.50891e-007 -0.572102 22.4232 73.6698 -25.507 -8.1365 25.2327 3.48774 
51.9702 86.6141 9.17324 1.18183 -1.06616 -0.220028 1.24372 -1.83137 1.0979 2.48973 0.356688 2.06831 2.46616 2.00043 2.02744 -17.0181 5.0937 -3.12096 12.4842 8.05246 -6.95789 53.0545 -8.38438 -5.05493 99.6177 17.5808 24.6178 7.84514e-007 -2.28338e-006 -5.19072e-006 12.3499 4.89071 -1.04435 -9.78498e-006 -2.78363e-008 -3.0045 8.02888 -4.95147 0.697689 -72.3468 -7.29126 4.96339 -96.1279 23.9783 -27.6281 4.44593e-007 -2.44813e-006 3.65363e-006 -12.9938 8.20157 0.58293 1.15501e-005 8.15674e-006 3.00581 -8.02887 -4.95142 -0.697678 177.83 15.5528 -1.16526 180 7.01536e-015 178.875 176.348 24.7085 -179.781 -4.84381e-006 2.17778e-006 0.605106 -23.2101 71.3347 22.9152 8.12814 25.2331 -3.48417 -178.979 12.427 1.15849 4.54188e-006 -4.6773e-006 -1.0081 -1.41771 -24.0256 0.557859 3.88615e-006 7.50891e-007 -0.5721 22.4106 73.6621 -25.4981 -8.1365 25.2327 3.48774 
51.9712 86.6174 9.17516 1.18638 -1.06289 -0.214755 1.24269 -1.83156 1.09835 2.49032 0.356723 2.07034 2.46672 2.00046 2.02945 -17.0189 5.07485 -3.12525 12.4816 8.06862 -6.96164 53.0612 -8.38546 -5.05585 99.6325 17.6301 24.5707 7.84514e-007 -2.28338e-006 -5.19072e-006 12.3663 4.88194 -1.04228 -9.78498e-006 -2.78363e-008 -3.0045 8.02888 -4.95147 0.697689 -72.3492 -7.29148 4.96357 -96.1515 23.9886 -27.5953 4.44593e-007 -2.44813e-006 3.65363e-006 -13.0105 8.20331 0.584997 1.15501e-005 8.15674e-006 3.00581 -8.02887 -4.95142 -0.697678 177.786 15.5476 -1.09062 180 7.01536e-015 178.875 176.289 24.6918 -179.763 -4.84381e-006 2.17778e-006 0.600983 -23.2423 71.3253 22.9103 8.12814 25.2331 -3.48417 -178.992 12.4269 1.17602 4.54188e-006 -4.6773e-006 -1.0081 -1.40821 -24.014 0.561962 3.88615e-006 7.50891e-007 -0.572096 22.3976 73.6541 -25.4889 -8.1365 25.2327 3.48774 
51.985 86.6146 9.14759 1.191 -1.05975 -0.209474 1.24165 -1.83176 1.09879 2.49094 0.356762 2.07239 2.4673 2.0005 2.03147 -17.0197 5.05568 -3.12965 12.4792 8.08512 -6.96551 53.0681 -8.38664 -5.05685 99.6471 17.6799 24.524 7.84514e-007 -2.28338e-006 -5.19072e-006 12.3825 4.87306 -1.0402 -9.78498e-006 -2.78363e-008 -3.0045 8.02888 -4.95147 0.697689 -72.3516 -7.29173 4.96376 -96.1752 23.9994 -27.5625 4.44593e-007 -2.44813e-006 3.65363e-006 -13.0271 8.20471 0.587014 1.15501e-005 8.15674e-006 3.00581 -8.02887 -4.95142 -0.697678 177.741 15.542 -1.01407 180 7.01536e-015 178.875 176.228 24.6746 -179.743 -4.84381e-006 2.17778e-006 0.596754 -23.2753 71.3157 22.9052 8.12814 25.2331 -3.48417 -179.005 12.4268 1.19392 4.54188e-006 -4.6773e-006 -1.0081 -1.39848 -24.0022 0.566177 3.88615e-006 7.50891e-007 -0.572091 22.3843 73.6458 -25.4795 -8.1365 25.2327 3.48774 
51.9824 86.6155 9.15658 1.19564 -1.05667 -0.204188 1.24059 -1.83196 1.09921 2.49156 0.356803 2.07445 2.4679 2.00054 2.0335 -17.0206 5.03634 -3.13411 12.4769 8.10182 -6.96943 53.0751 -8.38787 -5.05788 99.6617 17.73 24.4774 7.84514e-007 -2.28338e-006 -5.19072e-006 12.3986 4.86411 -1.03812 -9.78498e-006 -2.78363e-008 -3.0045 8.02888 -4.95147 0.697689 -72.354 -7.29201 4.96396 -96.199 24.0105 -27.5296 4.44593e-007 -2.44813e-006 3.65363e-006 -13.0436 8.20592 0.589001 1.15501e-005 8.15674e-006 3.00581 -8.02887 -4.95142 -0.697678 177.696 15.5362 -0.936415 180 7.01536e-015 178.875 176.167 24.6571 -179.723 -4.84381e-006 2.17778e-006 0.592465 -23.3087 71.3059 22.9 8.12814 25.2331 -3.48417 -179.018 12.4266 1.21204 4.54188e-006 -4.6773e-006 -1.0081 -1.3886 -23.9903 0.570455 3.88615e-006 7.50891e-007 -0.572086 22.3709 73.6374 -25.4701 -8.1365 25.2327 3.48774 
51.994 86.6322 9.15739 1.2003 -1.05361 -0.198901 1.23953 -1.83216 1.09964 2.49219 0.356845 2.0765 2.46849 2.00058 2.03553 -17.0214 5.01696 -3.13859 12.4746 8.11856 -6.97337 53.0821 -8.38911 -5.05892 99.6763 17.7802 24.431 7.84514e-007 -2.28338e-006 -5.19072e-006 12.4146 4.85515 -1.03603 -9.78498e-006 -2.78363e-008 -3.0045 8.02888 -4.95147 0.697689 -72.3563 -7.29229 4.96417 -96.2228 24.0217 -27.4967 4.44593e-007 -2.44813e-006 3.65363e-006 -13.0602 8.20709 0.590981 1.15501e-005 8.15674e-006 3.00581 -8.02887 -4.95142 -0.697678 177.65 15.5303 -0.858493 180 7.01536e-015 178.875 176.106 24.6395 -179.704 -4.84381e-006 2.17778e-006 0.588162 -23.3422 71.296 22.8948 8.12814 25.2331 -3.48417 -179.031 12.4264 1.23022 4.54188e-006 -4.6773e-006 -1.0081 -1.37869 -23.9784 0.574749 3.88615e-006 7.50891e-007 -0.572081 22.3574 73.629 -25.4606 -8.1365 25.2327 3.48774 
